<svg xmlns="http://www.w3.org/2000/svg" viewBox="0 0 120 80" width="100%" height="100%">
  <rect x="5" y="5" width="110" height="70" rx="4" fill="#2E7D32" />
  
  <path d="M45 40 L30 40 L30 60 M65 35 L80 35 L80 20 M65 50 L75 50 L75 65 M45 50 L35 60" fill="none" stroke="#4CAF50" stroke-width="1.5" />
  
  <g fill="#D4AF37">
    <circle cx="11" cy="11" r="2.5" />
    <circle cx="109" cy="11" r="2.5" />
    <circle cx="11" cy="69" r="2.5" />
    <circle cx="109" cy="69" r="2.5" />
  </g>
  <g fill="#FFFFFF">
    <circle cx="11" cy="11" r="1.2" />
    <circle cx="109" cy="11" r="1.2" />
    <circle cx="11" cy="69" r="1.2" />
    <circle cx="109" cy="69" r="1.2" />
  </g>

  <rect x="15" y="6" width="55" height="6" fill="#1A1A1A" />
  <pattern id="pins" x="0" y="0" width="2.5" height="2.5" patternUnits="userSpaceOnUse">
    <circle cx="1.25" cy="1.25" r="0.8" fill="#D4AF37" />
  </pattern>
  <rect x="16" y="6.5" width="53" height="5" fill="url(#pins)" />

  <rect x="2" y="30" width="6" height="20" rx="1" fill="#34495E" />

  <rect x="42" y="28" width="22" height="22" rx="2" fill="#2C3E50" />
  <rect x="45" y="31" width="16" height="16" rx="1" fill="#34495E" />

  <rect x="25" y="45" width="10" height="10" rx="1" fill="#2C3E50" />

  <rect x="25" y="15" width="4" height="18" rx="0.5" fill="#1A1A1A" />
  <rect x="75" y="25" width="4" height="18" rx="0.5" fill="#1A1A1A" />
  <rect x="25.5" y="16" width="3" height="16" fill="#D4AF37" />
  <rect x="75.5" y="26" width="3" height="16" fill="#D4AF37" />

  <rect x="95" y="8" width="20" height="16" rx="1" fill="#BDC3C7" />
  <rect x="95" y="26" width="20" height="16" rx="1" fill="#BDC3C7" />
  
  <rect x="100" y="10" width="15" height="3" fill="#34495E" />
  <rect x="100" y="19" width="15" height="3" fill="#34495E" />
  <rect x="100" y="28" width="15" height="3" fill="#34495E" />
  <rect x="100" y="37" width="15" height="3" fill="#34495E" />

  <rect x="93" y="45" width="22" height="20" rx="1" fill="#BDC3C7" />
  <rect x="98" y="52" width="17" height="10" fill="#34495E" />
  
  <rect x="12" y="70" width="12" height="7" rx="1" fill="#BDC3C7" />
  
  <rect x="35" y="70" width="16" height="8" rx="1" fill="#BDC3C7" />
  <rect x="37" y="72" width="12" height="6" fill="#34495E" />
  
  <rect x="65" y="68" width="8" height="10" rx="1" fill="#34495E" />
  <circle cx="69" cy="75" r="3" fill="#1A1A1A" />
</svg>
