<svg xmlns="http://www.w3.org/2000/svg" viewBox="0 0 100 100" width="100%" height="100%">
  <path d="M 25 75 
           A 20 20 0 0 1 25 35 
           A 30 30 0 0 1 75 35 
           A 20 20 0 0 1 75 75 
           Z" 
        fill="#F8F9FA" stroke="#2C3E50" stroke-width="3" stroke-linejoin="round"/>
        
  <g transform="translate(35, 34)">
     <path d="M -4 4 
              A 4 4 0 0 1 4 4 
              L 4 17.5 
              A 6 6 0 1 1 -4 17.5 
              Z" 
           fill="#FFFFFF" stroke="#2C3E50" stroke-width="2" stroke-linejoin="round"/>
           
     <circle cx="0" cy="22" r="3.5" fill="#E74C3C"/>
     
     <rect x="-1.5" y="10" width="3" height="12" rx="1.5" fill="#E74C3C"/>
     
     <line x1="1" y1="6" x2="3" y2="6" stroke="#2C3E50" stroke-width="1.2" stroke-linecap="round"/>
     <line x1="1" y1="10" x2="3" y2="10" stroke="#2C3E50" stroke-width="1.2" stroke-linecap="round"/>
     <line x1="1" y1="14" x2="3" y2="14" stroke="#2C3E50" stroke-width="1.2" stroke-linecap="round"/>
  </g>
  
  <path d="M 65 37
           C 65 37, 73 49, 73 56
           A 8 8 0 0 1 57 56
           C 57 49, 65 37, 65 37 Z" 
        fill="#3498DB" stroke="#2C3E50" stroke-width="2" stroke-linejoin="round"/>
        
  <circle cx="61" cy="53" r="1.5" fill="#FFFFFF" opacity="0.8"/>
</svg>
