<svg xmlns="http://www.w3.org/2000/svg" viewBox="0 0 100 100" width="100%" height="100%">
  <path d="M 15 28 A 35 12 0 0 1 85 28" fill="none" stroke="#E67E22" stroke-width="3" stroke-dasharray="4 4" />

  <rect x="12" y="75" width="76" height="6" rx="3" fill="#2C3E50" />
  <circle cx="20" cy="78" r="1.5" fill="#1A252F" />
  <circle cx="80" cy="78" r="1.5" fill="#1A252F" />

  <ellipse cx="50" cy="75" rx="30" ry="10" fill="#2C3E50" />
  <rect x="20" y="45" width="60" height="30" fill="#34495E" />
  
  <line x1="20" y1="52" x2="80" y2="52" stroke="#2C3E50" stroke-width="2" />
  <line x1="20" y1="60" x2="80" y2="60" stroke="#2C3E50" stroke-width="2" />
  <line x1="20" y1="68" x2="80" y2="68" stroke="#2C3E50" stroke-width="2" />

  <ellipse cx="50" cy="45" rx="30" ry="10" fill="#7F8C8D" />
  <ellipse cx="50" cy="45" rx="14" ry="4.5" fill="#95A5A6" />
  <ellipse cx="50" cy="45" rx="8" ry="2.5" fill="#2C3E50" />

  <rect x="46" y="12" width="8" height="33" fill="#BDC3C7" />
  <ellipse cx="50" cy="12" rx="4" ry="2" fill="#ECF0F1" />
  
  <rect x="47.5" y="15" width="2.5" height="18" fill="#95A5A6" rx="1" />

  <path d="M 15 28 A 35 12 0 0 0 85 28" fill="none" stroke="#E67E22" stroke-width="4" stroke-linecap="round" />
  
  <polygon points="85,18 78,30 92,30" fill="#E67E22" />
</svg>
