<svg xmlns="http://www.w3.org/2000/svg" viewBox="0 0 600 360" width="600" height="360"><rect x="14" y="34" width="580" height="300" rx="10" fill="#f6f4ef" stroke="#dfdcd5" stroke-width="2"></rect><line x1="30" y1="48" x2="578" y2="48" stroke="#e23b2e" stroke-width="2.5" stroke-linecap="round" opacity="0.7"></line><line x1="30" y1="58" x2="578" y2="58" stroke="#2f6fdb" stroke-width="2.5" stroke-linecap="round" opacity="0.7"></line><line x1="30" y1="320" x2="578" y2="320" stroke="#e23b2e" stroke-width="2.5" stroke-linecap="round" opacity="0.7"></line><line x1="30" y1="330" x2="578" y2="330" stroke="#2f6fdb" stroke-width="2.5" stroke-linecap="round" opacity="0.7"></line><line x1="30" y1="178.9" x2="578" y2="178.9" stroke="#e6e2da" stroke-width="6"></line><g fill="#cdc8be"><rect x="37.6" y="67.6" width="4.8" height="4.8" rx="1.2"></rect><rect x="59.6" y="67.6" width="4.8" height="4.8" rx="1.2"></rect><rect x="81.6" y="67.6" width="4.8" height="4.8" rx="1.2"></rect><rect x="103.6" y="67.6" width="4.8" height="4.8" rx="1.2"></rect><rect x="125.6" y="67.6" width="4.8" height="4.8" rx="1.2"></rect><rect x="147.6" y="67.6" width="4.8" height="4.8" rx="1.2"></rect><rect x="169.6" y="67.6" width="4.8" height="4.8" rx="1.2"></rect><rect x="191.6" y="67.6" width="4.8" height="4.8" rx="1.2"></rect><rect x="213.6" y="67.6" width="4.8" height="4.8" rx="1.2"></rect><rect x="235.6" y="67.6" width="4.8" height="4.8" rx="1.2"></rect><rect x="257.6" y="67.6" width="4.8" height="4.8" rx="1.2"></rect><rect x="279.6" y="67.6" width="4.8" height="4.8" rx="1.2"></rect><rect x="301.6" y="67.6" width="4.8" height="4.8" rx="1.2"></rect><rect x="323.6" y="67.6" width="4.8" height="4.8" rx="1.2"></rect><rect x="345.6" y="67.6" width="4.8" height="4.8" rx="1.2"></rect><rect x="367.6" y="67.6" width="4.8" height="4.8" rx="1.2"></rect><rect x="389.6" y="67.6" width="4.8" height="4.8" rx="1.2"></rect><rect x="411.6" y="67.6" width="4.8" height="4.8" rx="1.2"></rect><rect x="433.6" y="67.6" width="4.8" height="4.8" rx="1.2"></rect><rect x="455.6" y="67.6" width="4.8" height="4.8" rx="1.2"></rect><rect x="477.6" y="67.6" width="4.8" height="4.8" rx="1.2"></rect><rect x="499.6" y="67.6" width="4.8" height="4.8" rx="1.2"></rect><rect x="37.6" y="89.6" width="4.8" height="4.8" rx="1.2"></rect><rect x="59.6" y="89.6" width="4.8" height="4.8" rx="1.2"></rect><rect x="81.6" y="89.6" width="4.8" height="4.8" rx="1.2"></rect><rect x="103.6" y="89.6" width="4.8" height="4.8" rx="1.2"></rect><rect x="125.6" y="89.6" width="4.8" height="4.8" rx="1.2"></rect><rect x="147.6" y="89.6" width="4.8" height="4.8" rx="1.2"></rect><rect x="169.6" y="89.6" width="4.8" height="4.8" rx="1.2"></rect><rect x="191.6" y="89.6" width="4.8" height="4.8" rx="1.2"></rect><rect x="213.6" y="89.6" width="4.8" height="4.8" rx="1.2"></rect><rect x="235.6" y="89.6" width="4.8" height="4.8" rx="1.2"></rect><rect x="257.6" y="89.6" width="4.8" height="4.8" rx="1.2"></rect><rect x="279.6" y="89.6" width="4.8" height="4.8" rx="1.2"></rect><rect x="301.6" y="89.6" width="4.8" height="4.8" rx="1.2"></rect><rect x="323.6" y="89.6" width="4.8" height="4.8" rx="1.2"></rect><rect x="345.6" y="89.6" width="4.8" height="4.8" rx="1.2"></rect><rect x="367.6" y="89.6" width="4.8" height="4.8" rx="1.2"></rect><rect x="389.6" y="89.6" width="4.8" height="4.8" rx="1.2"></rect><rect x="411.6" y="89.6" width="4.8" height="4.8" rx="1.2"></rect><rect x="433.6" y="89.6" width="4.8" height="4.8" rx="1.2"></rect><rect x="455.6" y="89.6" width="4.8" height="4.8" rx="1.2"></rect><rect x="477.6" y="89.6" width="4.8" height="4.8" rx="1.2"></rect><rect x="499.6" y="89.6" width="4.8" height="4.8" rx="1.2"></rect><rect x="37.6" y="111.6" width="4.8" height="4.8" rx="1.2"></rect><rect x="59.6" y="111.6" width="4.8" height="4.8" rx="1.2"></rect><rect x="81.6" y="111.6" width="4.8" height="4.8" rx="1.2"></rect><rect x="103.6" y="111.6" width="4.8" height="4.8" rx="1.2"></rect><rect x="125.6" y="111.6" width="4.8" height="4.8" rx="1.2"></rect><rect x="147.6" y="111.6" width="4.8" height="4.8" rx="1.2"></rect><rect x="169.6" y="111.6" width="4.8" height="4.8" rx="1.2"></rect><rect x="191.6" y="111.6" width="4.8" height="4.8" rx="1.2"></rect><rect x="213.6" y="111.6" width="4.8" height="4.8" rx="1.2"></rect><rect x="235.6" y="111.6" width="4.8" height="4.8" rx="1.2"></rect><rect x="257.6" y="111.6" width="4.8" height="4.8" rx="1.2"></rect><rect x="279.6" y="111.6" width="4.8" height="4.8" rx="1.2"></rect><rect x="301.6" y="111.6" width="4.8" height="4.8" rx="1.2"></rect><rect x="323.6" y="111.6" width="4.8" height="4.8" rx="1.2"></rect><rect x="345.6" y="111.6" width="4.8" height="4.8" rx="1.2"></rect><rect x="367.6" y="111.6" width="4.8" height="4.8" rx="1.2"></rect><rect x="389.6" y="111.6" width="4.8" height="4.8" rx="1.2"></rect><rect x="411.6" y="111.6" width="4.8" height="4.8" rx="1.2"></rect><rect x="433.6" y="111.6" width="4.8" height="4.8" rx="1.2"></rect><rect x="455.6" y="111.6" width="4.8" height="4.8" rx="1.2"></rect><rect x="477.6" y="111.6" width="4.8" height="4.8" rx="1.2"></rect><rect x="499.6" y="111.6" width="4.8" height="4.8" rx="1.2"></rect><rect x="37.6" y="133.6" width="4.8" height="4.8" rx="1.2"></rect><rect x="59.6" y="133.6" width="4.8" height="4.8" rx="1.2"></rect><rect x="81.6" y="133.6" width="4.8" height="4.8" rx="1.2"></rect><rect x="103.6" y="133.6" width="4.8" height="4.8" rx="1.2"></rect><rect x="125.6" y="133.6" width="4.8" height="4.8" rx="1.2"></rect><rect x="147.6" y="133.6" width="4.8" height="4.8" rx="1.2"></rect><rect x="169.6" y="133.6" width="4.8" height="4.8" rx="1.2"></rect><rect x="191.6" y="133.6" width="4.8" height="4.8" rx="1.2"></rect><rect x="213.6" y="133.6" width="4.8" height="4.8" rx="1.2"></rect><rect x="235.6" y="133.6" width="4.8" height="4.8" rx="1.2"></rect><rect x="257.6" y="133.6" width="4.8" height="4.8" rx="1.2"></rect><rect x="279.6" y="133.6" width="4.8" height="4.8" rx="1.2"></rect><rect x="301.6" y="133.6" width="4.8" height="4.8" rx="1.2"></rect><rect x="323.6" y="133.6" width="4.8" height="4.8" rx="1.2"></rect><rect x="345.6" y="133.6" width="4.8" height="4.8" rx="1.2"></rect><rect x="367.6" y="133.6" width="4.8" height="4.8" rx="1.2"></rect><rect x="389.6" y="133.6" width="4.8" height="4.8" rx="1.2"></rect><rect x="411.6" y="133.6" width="4.8" height="4.8" rx="1.2"></rect><rect x="433.6" y="133.6" width="4.8" height="4.8" rx="1.2"></rect><rect x="455.6" y="133.6" width="4.8" height="4.8" rx="1.2"></rect><rect x="477.6" y="133.6" width="4.8" height="4.8" rx="1.2"></rect><rect x="499.6" y="133.6" width="4.8" height="4.8" rx="1.2"></rect><rect x="37.6" y="155.6" width="4.8" height="4.8" rx="1.2"></rect><rect x="59.6" y="155.6" width="4.8" height="4.8" rx="1.2"></rect><rect x="81.6" y="155.6" width="4.8" height="4.8" rx="1.2"></rect><rect x="103.6" y="155.6" width="4.8" height="4.8" rx="1.2"></rect><rect x="125.6" y="155.6" width="4.8" height="4.8" rx="1.2"></rect><rect x="147.6" y="155.6" width="4.8" height="4.8" rx="1.2"></rect><rect x="169.6" y="155.6" width="4.8" height="4.8" rx="1.2"></rect><rect x="191.6" y="155.6" width="4.8" height="4.8" rx="1.2"></rect><rect x="213.6" y="155.6" width="4.8" height="4.8" rx="1.2"></rect><rect x="235.6" y="155.6" width="4.8" height="4.8" rx="1.2"></rect><rect x="257.6" y="155.6" width="4.8" height="4.8" rx="1.2"></rect><rect x="279.6" y="155.6" width="4.8" height="4.8" rx="1.2"></rect><rect x="301.6" y="155.6" width="4.8" height="4.8" rx="1.2"></rect><rect x="323.6" y="155.6" width="4.8" height="4.8" rx="1.2"></rect><rect x="345.6" y="155.6" width="4.8" height="4.8" rx="1.2"></rect><rect x="367.6" y="155.6" width="4.8" height="4.8" rx="1.2"></rect><rect x="389.6" y="155.6" width="4.8" height="4.8" rx="1.2"></rect><rect x="411.6" y="155.6" width="4.8" height="4.8" rx="1.2"></rect><rect x="433.6" y="155.6" width="4.8" height="4.8" rx="1.2"></rect><rect x="455.6" y="155.6" width="4.8" height="4.8" rx="1.2"></rect><rect x="477.6" y="155.6" width="4.8" height="4.8" rx="1.2"></rect><rect x="499.6" y="155.6" width="4.8" height="4.8" rx="1.2"></rect><rect x="37.6" y="197.4" width="4.8" height="4.8" rx="1.2"></rect><rect x="59.6" y="197.4" width="4.8" height="4.8" rx="1.2"></rect><rect x="81.6" y="197.4" width="4.8" height="4.8" rx="1.2"></rect><rect x="103.6" y="197.4" width="4.8" height="4.8" rx="1.2"></rect><rect x="125.6" y="197.4" width="4.8" height="4.8" rx="1.2"></rect><rect x="147.6" y="197.4" width="4.8" height="4.8" rx="1.2"></rect><rect x="169.6" y="197.4" width="4.8" height="4.8" rx="1.2"></rect><rect x="191.6" y="197.4" width="4.8" height="4.8" rx="1.2"></rect><rect x="213.6" y="197.4" width="4.8" height="4.8" rx="1.2"></rect><rect x="235.6" y="197.4" width="4.8" height="4.8" rx="1.2"></rect><rect x="257.6" y="197.4" width="4.8" height="4.8" rx="1.2"></rect><rect x="279.6" y="197.4" width="4.8" height="4.8" rx="1.2"></rect><rect x="301.6" y="197.4" width="4.8" height="4.8" rx="1.2"></rect><rect x="323.6" y="197.4" width="4.8" height="4.8" rx="1.2"></rect><rect x="345.6" y="197.4" width="4.8" height="4.8" rx="1.2"></rect><rect x="367.6" y="197.4" width="4.8" height="4.8" rx="1.2"></rect><rect x="389.6" y="197.4" width="4.8" height="4.8" rx="1.2"></rect><rect x="411.6" y="197.4" width="4.8" height="4.8" rx="1.2"></rect><rect x="433.6" y="197.4" width="4.8" height="4.8" rx="1.2"></rect><rect x="455.6" y="197.4" width="4.8" height="4.8" rx="1.2"></rect><rect x="477.6" y="197.4" width="4.8" height="4.8" rx="1.2"></rect><rect x="499.6" y="197.4" width="4.8" height="4.8" rx="1.2"></rect><rect x="37.6" y="219.4" width="4.8" height="4.8" rx="1.2"></rect><rect x="59.6" y="219.4" width="4.8" height="4.8" rx="1.2"></rect><rect x="81.6" y="219.4" width="4.8" height="4.8" rx="1.2"></rect><rect x="103.6" y="219.4" width="4.8" height="4.8" rx="1.2"></rect><rect x="125.6" y="219.4" width="4.8" height="4.8" rx="1.2"></rect><rect x="147.6" y="219.4" width="4.8" height="4.8" rx="1.2"></rect><rect x="169.6" y="219.4" width="4.8" height="4.8" rx="1.2"></rect><rect x="191.6" y="219.4" width="4.8" height="4.8" rx="1.2"></rect><rect x="213.6" y="219.4" width="4.8" height="4.8" rx="1.2"></rect><rect x="235.6" y="219.4" width="4.8" height="4.8" rx="1.2"></rect><rect x="257.6" y="219.4" width="4.8" height="4.8" rx="1.2"></rect><rect x="279.6" y="219.4" width="4.8" height="4.8" rx="1.2"></rect><rect x="301.6" y="219.4" width="4.8" height="4.8" rx="1.2"></rect><rect x="323.6" y="219.4" width="4.8" height="4.8" rx="1.2"></rect><rect x="345.6" y="219.4" width="4.8" height="4.8" rx="1.2"></rect><rect x="367.6" y="219.4" width="4.8" height="4.8" rx="1.2"></rect><rect x="389.6" y="219.4" width="4.8" height="4.8" rx="1.2"></rect><rect x="411.6" y="219.4" width="4.8" height="4.8" rx="1.2"></rect><rect x="433.6" y="219.4" width="4.8" height="4.8" rx="1.2"></rect><rect x="455.6" y="219.4" width="4.8" height="4.8" rx="1.2"></rect><rect x="477.6" y="219.4" width="4.8" height="4.8" rx="1.2"></rect><rect x="499.6" y="219.4" width="4.8" height="4.8" rx="1.2"></rect><rect x="37.6" y="241.4" width="4.8" height="4.8" rx="1.2"></rect><rect x="59.6" y="241.4" width="4.8" height="4.8" rx="1.2"></rect><rect x="81.6" y="241.4" width="4.8" height="4.8" rx="1.2"></rect><rect x="103.6" y="241.4" width="4.8" height="4.8" rx="1.2"></rect><rect x="125.6" y="241.4" width="4.8" height="4.8" rx="1.2"></rect><rect x="147.6" y="241.4" width="4.8" height="4.8" rx="1.2"></rect><rect x="169.6" y="241.4" width="4.8" height="4.8" rx="1.2"></rect><rect x="191.6" y="241.4" width="4.8" height="4.8" rx="1.2"></rect><rect x="213.6" y="241.4" width="4.8" height="4.8" rx="1.2"></rect><rect x="235.6" y="241.4" width="4.8" height="4.8" rx="1.2"></rect><rect x="257.6" y="241.4" width="4.8" height="4.8" rx="1.2"></rect><rect x="279.6" y="241.4" width="4.8" height="4.8" rx="1.2"></rect><rect x="301.6" y="241.4" width="4.8" height="4.8" rx="1.2"></rect><rect x="323.6" y="241.4" width="4.8" height="4.8" rx="1.2"></rect><rect x="345.6" y="241.4" width="4.8" height="4.8" rx="1.2"></rect><rect x="367.6" y="241.4" width="4.8" height="4.8" rx="1.2"></rect><rect x="389.6" y="241.4" width="4.8" height="4.8" rx="1.2"></rect><rect x="411.6" y="241.4" width="4.8" height="4.8" rx="1.2"></rect><rect x="433.6" y="241.4" width="4.8" height="4.8" rx="1.2"></rect><rect x="455.6" y="241.4" width="4.8" height="4.8" rx="1.2"></rect><rect x="477.6" y="241.4" width="4.8" height="4.8" rx="1.2"></rect><rect x="499.6" y="241.4" width="4.8" height="4.8" rx="1.2"></rect><rect x="37.6" y="263.40000000000003" width="4.8" height="4.8" rx="1.2"></rect><rect x="59.6" y="263.40000000000003" width="4.8" height="4.8" rx="1.2"></rect><rect x="81.6" y="263.40000000000003" width="4.8" height="4.8" rx="1.2"></rect><rect x="103.6" y="263.40000000000003" width="4.8" height="4.8" rx="1.2"></rect><rect x="125.6" y="263.40000000000003" width="4.8" height="4.8" rx="1.2"></rect><rect x="147.6" y="263.40000000000003" width="4.8" height="4.8" rx="1.2"></rect><rect x="169.6" y="263.40000000000003" width="4.8" height="4.8" rx="1.2"></rect><rect x="191.6" y="263.40000000000003" width="4.8" height="4.8" rx="1.2"></rect><rect x="213.6" y="263.40000000000003" width="4.8" height="4.8" rx="1.2"></rect><rect x="235.6" y="263.40000000000003" width="4.8" height="4.8" rx="1.2"></rect><rect x="257.6" y="263.40000000000003" width="4.8" height="4.8" rx="1.2"></rect><rect x="279.6" y="263.40000000000003" width="4.8" height="4.8" rx="1.2"></rect><rect x="301.6" y="263.40000000000003" width="4.8" height="4.8" rx="1.2"></rect><rect x="323.6" y="263.40000000000003" width="4.8" height="4.8" rx="1.2"></rect><rect x="345.6" y="263.40000000000003" width="4.8" height="4.8" rx="1.2"></rect><rect x="367.6" y="263.40000000000003" width="4.8" height="4.8" rx="1.2"></rect><rect x="389.6" y="263.40000000000003" width="4.8" height="4.8" rx="1.2"></rect><rect x="411.6" y="263.40000000000003" width="4.8" height="4.8" rx="1.2"></rect><rect x="433.6" y="263.40000000000003" width="4.8" height="4.8" rx="1.2"></rect><rect x="455.6" y="263.40000000000003" width="4.8" height="4.8" rx="1.2"></rect><rect x="477.6" y="263.40000000000003" width="4.8" height="4.8" rx="1.2"></rect><rect x="499.6" y="263.40000000000003" width="4.8" height="4.8" rx="1.2"></rect><rect x="37.6" y="285.40000000000003" width="4.8" height="4.8" rx="1.2"></rect><rect x="59.6" y="285.40000000000003" width="4.8" height="4.8" rx="1.2"></rect><rect x="81.6" y="285.40000000000003" width="4.8" height="4.8" rx="1.2"></rect><rect x="103.6" y="285.40000000000003" width="4.8" height="4.8" rx="1.2"></rect><rect x="125.6" y="285.40000000000003" width="4.8" height="4.8" rx="1.2"></rect><rect x="147.6" y="285.40000000000003" width="4.8" height="4.8" rx="1.2"></rect><rect x="169.6" y="285.40000000000003" width="4.8" height="4.8" rx="1.2"></rect><rect x="191.6" y="285.40000000000003" width="4.8" height="4.8" rx="1.2"></rect><rect x="213.6" y="285.40000000000003" width="4.8" height="4.8" rx="1.2"></rect><rect x="235.6" y="285.40000000000003" width="4.8" height="4.8" rx="1.2"></rect><rect x="257.6" y="285.40000000000003" width="4.8" height="4.8" rx="1.2"></rect><rect x="279.6" y="285.40000000000003" width="4.8" height="4.8" rx="1.2"></rect><rect x="301.6" y="285.40000000000003" width="4.8" height="4.8" rx="1.2"></rect><rect x="323.6" y="285.40000000000003" width="4.8" height="4.8" rx="1.2"></rect><rect x="345.6" y="285.40000000000003" width="4.8" height="4.8" rx="1.2"></rect><rect x="367.6" y="285.40000000000003" width="4.8" height="4.8" rx="1.2"></rect><rect x="389.6" y="285.40000000000003" width="4.8" height="4.8" rx="1.2"></rect><rect x="411.6" y="285.40000000000003" width="4.8" height="4.8" rx="1.2"></rect><rect x="433.6" y="285.40000000000003" width="4.8" height="4.8" rx="1.2"></rect><rect x="455.6" y="285.40000000000003" width="4.8" height="4.8" rx="1.2"></rect><rect x="477.6" y="285.40000000000003" width="4.8" height="4.8" rx="1.2"></rect><rect x="499.6" y="285.40000000000003" width="4.8" height="4.8" rx="1.2"></rect></g><path d="M62 92H76" stroke="#a9a395" stroke-width="3" stroke-linecap="round"></path><path d="M158 92H172" stroke="#a9a395" stroke-width="3" stroke-linecap="round"></path><rect x="76" y="83" width="82" height="18" rx="9" fill="#e6cb9b" stroke="#3a352e" stroke-width="2"></rect><rect x="92" y="83" width="3.4" height="18" fill="#7c4a24"></rect><rect x="101" y="83" width="3.4" height="18" fill="#23262b"></rect><rect x="110" y="83" width="3.4" height="18" fill="#e23b2e"></rect><rect x="119" y="83" width="3.4" height="18" fill="#c9a23b"></rect><rect x="78" y="83" width="78" height="5" rx="2.5" fill="#fff" opacity="0.25"></rect><path d="M216 92V72" stroke="#a9a395" stroke-width="3" stroke-linecap="round"></path><path d="M238 92V80" stroke="#a9a395" stroke-width="3" stroke-linecap="round"></path><path d="M215 74a12 12 0 0 1 24 0v8a3 3 0 0 1-3 3H218a3 3 0 0 1-3-3z" fill="#e5463d" stroke="#3a352e" stroke-width="2"></path><rect x="213" y="83" width="28" height="5" rx="2" fill="#c43a33" stroke="#3a352e" stroke-width="2"></rect><ellipse cx="223" cy="70" rx="3" ry="4.5" fill="#fff" opacity="0.45"></ellipse><path d="M282 92V80" stroke="#a9a395" stroke-width="3" stroke-linecap="round"></path><path d="M304 92V80" stroke="#a9a395" stroke-width="3" stroke-linecap="round"></path><path d="M278 78c-1-15 7-25 15-25s16 10 15 25z" fill="#2f6fae" stroke="#3a352e" stroke-width="2"></path><text x="293" y="70" font-family="ui-monospace,monospace" font-size="11" font-weight="700" fill="#dceaf8" text-anchor="middle">104</text><path d="M348 92h-2" stroke="#a9a395" stroke-width="3" stroke-linecap="round"></path><path d="M436 92h2" stroke="#a9a395" stroke-width="3" stroke-linecap="round"></path><rect x="370" y="70" width="44" height="44" rx="5" fill="#3a4252" stroke="#3a352e" stroke-width="2"></rect><circle cx="392" cy="92" r="13" fill="#cf4a44" stroke="#3a352e" stroke-width="2"></circle><circle cx="388" cy="88" r="3.5" fill="#fff" opacity="0.4"></circle><path d="M62 243.8V241.8" stroke="#a9a395" stroke-width="3" stroke-linecap="round"></path><path d="M84 243.8V241.8" stroke="#a9a395" stroke-width="3" stroke-linecap="round"></path><path d="M106 243.8V241.8" stroke="#a9a395" stroke-width="3" stroke-linecap="round"></path><path d="M64 241.8V219.8a20 20 0 0 1 40 0V241.8z" fill="#26252a" stroke="#3a352e" stroke-width="2"></path><path d="M65 240.8h38" stroke="#4a4a52" stroke-width="2"></path><text x="84" y="229.8" font-family="ui-monospace,monospace" font-size="10" font-weight="700" fill="#cfcfcf" text-anchor="middle">2N2222</text><line x1="172" y1="158" x2="172" y2="150" stroke="#a9a395" stroke-width="2.4"></line><line x1="172" y1="199.8" x2="172" y2="207.8" stroke="#a9a395" stroke-width="2.4"></line><line x1="194" y1="158" x2="194" y2="150" stroke="#a9a395" stroke-width="2.4"></line><line x1="194" y1="199.8" x2="194" y2="207.8" stroke="#a9a395" stroke-width="2.4"></line><line x1="216" y1="158" x2="216" y2="150" stroke="#a9a395" stroke-width="2.4"></line><line x1="216" y1="199.8" x2="216" y2="207.8" stroke="#a9a395" stroke-width="2.4"></line><line x1="238" y1="158" x2="238" y2="150" stroke="#a9a395" stroke-width="2.4"></line><line x1="238" y1="199.8" x2="238" y2="207.8" stroke="#a9a395" stroke-width="2.4"></line><line x1="260" y1="158" x2="260" y2="150" stroke="#a9a395" stroke-width="2.4"></line><line x1="260" y1="199.8" x2="260" y2="207.8" stroke="#a9a395" stroke-width="2.4"></line><line x1="282" y1="158" x2="282" y2="150" stroke="#a9a395" stroke-width="2.4"></line><line x1="282" y1="199.8" x2="282" y2="207.8" stroke="#a9a395" stroke-width="2.4"></line><line x1="304" y1="158" x2="304" y2="150" stroke="#a9a395" stroke-width="2.4"></line><line x1="304" y1="199.8" x2="304" y2="207.8" stroke="#a9a395" stroke-width="2.4"></line><rect x="160" y="152" width="156" height="53.80000000000001" rx="4" fill="#1f1f24" stroke="#3a352e" stroke-width="2"></rect><path d="M231 152a7 7 0 0 0 14 0" fill="none" stroke="#55555e" stroke-width="2"></path><circle cx="168" cy="200.8" r="2.4" fill="#55555e"></circle><text x="238" y="188.9" font-family="ui-monospace,monospace" font-size="11" font-weight="700" fill="#e6e6e6" text-anchor="middle">NE555</text><path d="M370 243.8V241.8" stroke="#a9a395" stroke-width="3" stroke-linecap="round"></path><path d="M392 243.8V241.8" stroke="#a9a395" stroke-width="3" stroke-linecap="round"></path><path d="M414 243.8V241.8" stroke="#a9a395" stroke-width="3" stroke-linecap="round"></path><rect x="366" y="221.8" width="52" height="20" rx="3" fill="#2f6fae" stroke="#3a352e" stroke-width="2"></rect><circle cx="392" cy="211.8" r="20" fill="#d8dde4" stroke="#3a352e" stroke-width="2"></circle><path d="M392 211.8V195.8" stroke="#3a4252" stroke-width="3" stroke-linecap="round"></path><rect x="470" y="120" width="86" height="120" rx="6" fill="#2a3140" stroke="#3a352e" stroke-width="2"></rect><rect x="473" y="123" width="80" height="14" rx="3" fill="#39414f"></rect><rect x="496" y="154" width="34" height="34" rx="3" fill="#15161c"></rect><text x="513" y="218" font-family="ui-monospace,monospace" font-size="11" font-weight="700" fill="#cfd6e0" text-anchor="middle">BME280</text><rect x="481" y="238" width="6" height="10" rx="1.4" fill="#d7b24c" stroke="#b88f33" stroke-width="0.8"></rect><rect x="496" y="238" width="6" height="10" rx="1.4" fill="#d7b24c" stroke="#b88f33" stroke-width="0.8"></rect><rect x="511" y="238" width="6" height="10" rx="1.4" fill="#d7b24c" stroke="#b88f33" stroke-width="0.8"></rect><rect x="526" y="238" width="6" height="10" rx="1.4" fill="#d7b24c" stroke="#b88f33" stroke-width="0.8"></rect><rect x="541" y="238" width="6" height="10" rx="1.4" fill="#d7b24c" stroke="#b88f33" stroke-width="0.8"></rect></svg>