<svg xmlns="http://www.w3.org/2000/svg" viewBox="0 0 780 560" width="780" height="560"><rect width="780" height="560" fill="#efece4"></rect><text x="20" y="18" font-family="monospace" font-size="11" fill="#0f766e">Bespoke inline bodies (were rendering as the wrong part)</text><g><rect x="26" y="26" width="173" height="158" rx="10" fill="#f6f4ef" stroke="#e7e2d8"></rect><g fill="#d6d1c6"><rect x="50.5" y="91" width="4" height="4" rx="1"></rect><rect x="50.5" y="103" width="4" height="4" rx="1"></rect><rect x="50.5" y="115" width="4" height="4" rx="1"></rect><rect x="50.5" y="127" width="4" height="4" rx="1"></rect><rect x="62.5" y="91" width="4" height="4" rx="1"></rect><rect x="62.5" y="103" width="4" height="4" rx="1"></rect><rect x="62.5" y="115" width="4" height="4" rx="1"></rect><rect x="62.5" y="127" width="4" height="4" rx="1"></rect><rect x="74.5" y="91" width="4" height="4" rx="1"></rect><rect x="74.5" y="103" width="4" height="4" rx="1"></rect><rect x="74.5" y="115" width="4" height="4" rx="1"></rect><rect x="74.5" y="127" width="4" height="4" rx="1"></rect><rect x="86.5" y="91" width="4" height="4" rx="1"></rect><rect x="86.5" y="103" width="4" height="4" rx="1"></rect><rect x="86.5" y="115" width="4" height="4" rx="1"></rect><rect x="86.5" y="127" width="4" height="4" rx="1"></rect><rect x="98.5" y="91" width="4" height="4" rx="1"></rect><rect x="98.5" y="103" width="4" height="4" rx="1"></rect><rect x="98.5" y="115" width="4" height="4" rx="1"></rect><rect x="98.5" y="127" width="4" height="4" rx="1"></rect><rect x="110.5" y="91" width="4" height="4" rx="1"></rect><rect x="110.5" y="103" width="4" height="4" rx="1"></rect><rect x="110.5" y="115" width="4" height="4" rx="1"></rect><rect x="110.5" y="127" width="4" height="4" rx="1"></rect><rect x="122.5" y="91" width="4" height="4" rx="1"></rect><rect x="122.5" y="103" width="4" height="4" rx="1"></rect><rect x="122.5" y="115" width="4" height="4" rx="1"></rect><rect x="122.5" y="127" width="4" height="4" rx="1"></rect><rect x="134.5" y="91" width="4" height="4" rx="1"></rect><rect x="134.5" y="103" width="4" height="4" rx="1"></rect><rect x="134.5" y="115" width="4" height="4" rx="1"></rect><rect x="134.5" y="127" width="4" height="4" rx="1"></rect><rect x="146.5" y="91" width="4" height="4" rx="1"></rect><rect x="146.5" y="103" width="4" height="4" rx="1"></rect><rect x="146.5" y="115" width="4" height="4" rx="1"></rect><rect x="146.5" y="127" width="4" height="4" rx="1"></rect><rect x="158.5" y="91" width="4" height="4" rx="1"></rect><rect x="158.5" y="103" width="4" height="4" rx="1"></rect><rect x="158.5" y="115" width="4" height="4" rx="1"></rect><rect x="158.5" y="127" width="4" height="4" rx="1"></rect><rect x="170.5" y="91" width="4" height="4" rx="1"></rect><rect x="170.5" y="103" width="4" height="4" rx="1"></rect><rect x="170.5" y="115" width="4" height="4" rx="1"></rect><rect x="170.5" y="127" width="4" height="4" rx="1"></rect></g><path d="M82.5 105H101.5" stroke="#a9a395" stroke-width="3" stroke-linecap="round"></path><path d="M123.5 105H142.5" stroke="#a9a395" stroke-width="3" stroke-linecap="round"></path><rect x="101.5" y="84" width="22" height="31" rx="5" fill="#23314a" stroke="#16202f"></rect><ellipse cx="112.5" cy="84" rx="11" ry="3.2" fill="#34466a" stroke="#16202f"></ellipse><path d="M118.5 89V111" stroke="#cdd6e2" stroke-width="5" stroke-linecap="round"></path><text x="112.5" y="176" font-family="monospace" font-size="10" fill="#6b665d" text-anchor="middle">electrolytic_cap</text></g><g><rect x="211" y="26" width="173" height="158" rx="10" fill="#f6f4ef" stroke="#e7e2d8"></rect><g fill="#d6d1c6"><rect x="235.5" y="91" width="4" height="4" rx="1"></rect><rect x="235.5" y="103" width="4" height="4" rx="1"></rect><rect x="235.5" y="115" width="4" height="4" rx="1"></rect><rect x="235.5" y="127" width="4" height="4" rx="1"></rect><rect x="247.5" y="91" width="4" height="4" rx="1"></rect><rect x="247.5" y="103" width="4" height="4" rx="1"></rect><rect x="247.5" y="115" width="4" height="4" rx="1"></rect><rect x="247.5" y="127" width="4" height="4" rx="1"></rect><rect x="259.5" y="91" width="4" height="4" rx="1"></rect><rect x="259.5" y="103" width="4" height="4" rx="1"></rect><rect x="259.5" y="115" width="4" height="4" rx="1"></rect><rect x="259.5" y="127" width="4" height="4" rx="1"></rect><rect x="271.5" y="91" width="4" height="4" rx="1"></rect><rect x="271.5" y="103" width="4" height="4" rx="1"></rect><rect x="271.5" y="115" width="4" height="4" rx="1"></rect><rect x="271.5" y="127" width="4" height="4" rx="1"></rect><rect x="283.5" y="91" width="4" height="4" rx="1"></rect><rect x="283.5" y="103" width="4" height="4" rx="1"></rect><rect x="283.5" y="115" width="4" height="4" rx="1"></rect><rect x="283.5" y="127" width="4" height="4" rx="1"></rect><rect x="295.5" y="91" width="4" height="4" rx="1"></rect><rect x="295.5" y="103" width="4" height="4" rx="1"></rect><rect x="295.5" y="115" width="4" height="4" rx="1"></rect><rect x="295.5" y="127" width="4" height="4" rx="1"></rect><rect x="307.5" y="91" width="4" height="4" rx="1"></rect><rect x="307.5" y="103" width="4" height="4" rx="1"></rect><rect x="307.5" y="115" width="4" height="4" rx="1"></rect><rect x="307.5" y="127" width="4" height="4" rx="1"></rect><rect x="319.5" y="91" width="4" height="4" rx="1"></rect><rect x="319.5" y="103" width="4" height="4" rx="1"></rect><rect x="319.5" y="115" width="4" height="4" rx="1"></rect><rect x="319.5" y="127" width="4" height="4" rx="1"></rect><rect x="331.5" y="91" width="4" height="4" rx="1"></rect><rect x="331.5" y="103" width="4" height="4" rx="1"></rect><rect x="331.5" y="115" width="4" height="4" rx="1"></rect><rect x="331.5" y="127" width="4" height="4" rx="1"></rect><rect x="343.5" y="91" width="4" height="4" rx="1"></rect><rect x="343.5" y="103" width="4" height="4" rx="1"></rect><rect x="343.5" y="115" width="4" height="4" rx="1"></rect><rect x="343.5" y="127" width="4" height="4" rx="1"></rect><rect x="355.5" y="91" width="4" height="4" rx="1"></rect><rect x="355.5" y="103" width="4" height="4" rx="1"></rect><rect x="355.5" y="115" width="4" height="4" rx="1"></rect><rect x="355.5" y="127" width="4" height="4" rx="1"></rect></g><path d="M267.5 105H285.5" stroke="#a9a395" stroke-width="3" stroke-linecap="round"></path><path d="M309.5 105H327.5" stroke="#a9a395" stroke-width="3" stroke-linecap="round"></path><circle cx="297.5" cy="105" r="13" fill="#1f1f24" stroke="#000"></circle><circle cx="297.5" cy="105" r="8" fill="none" stroke="#3a3a42" stroke-width="1.5"></circle><circle cx="297.5" cy="105" r="3.2" fill="none" stroke="#6a6a72" stroke-width="1.6"></circle><text x="297.5" y="176" font-family="monospace" font-size="10" fill="#6b665d" text-anchor="middle">buzzer</text></g><g><rect x="396" y="26" width="173" height="158" rx="10" fill="#f6f4ef" stroke="#e7e2d8"></rect><g fill="#d6d1c6"><rect x="420.5" y="91" width="4" height="4" rx="1"></rect><rect x="420.5" y="103" width="4" height="4" rx="1"></rect><rect x="420.5" y="115" width="4" height="4" rx="1"></rect><rect x="420.5" y="127" width="4" height="4" rx="1"></rect><rect x="432.5" y="91" width="4" height="4" rx="1"></rect><rect x="432.5" y="103" width="4" height="4" rx="1"></rect><rect x="432.5" y="115" width="4" height="4" rx="1"></rect><rect x="432.5" y="127" width="4" height="4" rx="1"></rect><rect x="444.5" y="91" width="4" height="4" rx="1"></rect><rect x="444.5" y="103" width="4" height="4" rx="1"></rect><rect x="444.5" y="115" width="4" height="4" rx="1"></rect><rect x="444.5" y="127" width="4" height="4" rx="1"></rect><rect x="456.5" y="91" width="4" height="4" rx="1"></rect><rect x="456.5" y="103" width="4" height="4" rx="1"></rect><rect x="456.5" y="115" width="4" height="4" rx="1"></rect><rect x="456.5" y="127" width="4" height="4" rx="1"></rect><rect x="468.5" y="91" width="4" height="4" rx="1"></rect><rect x="468.5" y="103" width="4" height="4" rx="1"></rect><rect x="468.5" y="115" width="4" height="4" rx="1"></rect><rect x="468.5" y="127" width="4" height="4" rx="1"></rect><rect x="480.5" y="91" width="4" height="4" rx="1"></rect><rect x="480.5" y="103" width="4" height="4" rx="1"></rect><rect x="480.5" y="115" width="4" height="4" rx="1"></rect><rect x="480.5" y="127" width="4" height="4" rx="1"></rect><rect x="492.5" y="91" width="4" height="4" rx="1"></rect><rect x="492.5" y="103" width="4" height="4" rx="1"></rect><rect x="492.5" y="115" width="4" height="4" rx="1"></rect><rect x="492.5" y="127" width="4" height="4" rx="1"></rect><rect x="504.5" y="91" width="4" height="4" rx="1"></rect><rect x="504.5" y="103" width="4" height="4" rx="1"></rect><rect x="504.5" y="115" width="4" height="4" rx="1"></rect><rect x="504.5" y="127" width="4" height="4" rx="1"></rect><rect x="516.5" y="91" width="4" height="4" rx="1"></rect><rect x="516.5" y="103" width="4" height="4" rx="1"></rect><rect x="516.5" y="115" width="4" height="4" rx="1"></rect><rect x="516.5" y="127" width="4" height="4" rx="1"></rect><rect x="528.5" y="91" width="4" height="4" rx="1"></rect><rect x="528.5" y="103" width="4" height="4" rx="1"></rect><rect x="528.5" y="115" width="4" height="4" rx="1"></rect><rect x="528.5" y="127" width="4" height="4" rx="1"></rect><rect x="540.5" y="91" width="4" height="4" rx="1"></rect><rect x="540.5" y="103" width="4" height="4" rx="1"></rect><rect x="540.5" y="115" width="4" height="4" rx="1"></rect><rect x="540.5" y="127" width="4" height="4" rx="1"></rect></g><path d="M450.5 105H465.5" stroke="#a9a395" stroke-width="3" stroke-linecap="round"></path><path d="M499.5 105H514.5" stroke="#a9a395" stroke-width="3" stroke-linecap="round"></path><rect x="465.5" y="91" width="34" height="28" rx="7" fill="#bcc0c7" stroke="#8d929b"></rect><line x1="475.5" y1="91" x2="475.5" y2="119" stroke="#9197a0" stroke-width="1.5"></line><line x1="489.5" y1="91" x2="489.5" y2="119" stroke="#9197a0" stroke-width="1.5"></line><rect x="478.5" y="83" width="8" height="9" rx="2" fill="#9197a0" stroke="#6f747c"></rect><text x="482.5" y="176" font-family="monospace" font-size="10" fill="#6b665d" text-anchor="middle">dc_motor</text></g><g><rect x="581" y="26" width="173" height="158" rx="10" fill="#f6f4ef" stroke="#e7e2d8"></rect><g fill="#d6d1c6"><rect x="605.5" y="91" width="4" height="4" rx="1"></rect><rect x="605.5" y="103" width="4" height="4" rx="1"></rect><rect x="605.5" y="115" width="4" height="4" rx="1"></rect><rect x="605.5" y="127" width="4" height="4" rx="1"></rect><rect x="617.5" y="91" width="4" height="4" rx="1"></rect><rect x="617.5" y="103" width="4" height="4" rx="1"></rect><rect x="617.5" y="115" width="4" height="4" rx="1"></rect><rect x="617.5" y="127" width="4" height="4" rx="1"></rect><rect x="629.5" y="91" width="4" height="4" rx="1"></rect><rect x="629.5" y="103" width="4" height="4" rx="1"></rect><rect x="629.5" y="115" width="4" height="4" rx="1"></rect><rect x="629.5" y="127" width="4" height="4" rx="1"></rect><rect x="641.5" y="91" width="4" height="4" rx="1"></rect><rect x="641.5" y="103" width="4" height="4" rx="1"></rect><rect x="641.5" y="115" width="4" height="4" rx="1"></rect><rect x="641.5" y="127" width="4" height="4" rx="1"></rect><rect x="653.5" y="91" width="4" height="4" rx="1"></rect><rect x="653.5" y="103" width="4" height="4" rx="1"></rect><rect x="653.5" y="115" width="4" height="4" rx="1"></rect><rect x="653.5" y="127" width="4" height="4" rx="1"></rect><rect x="665.5" y="91" width="4" height="4" rx="1"></rect><rect x="665.5" y="103" width="4" height="4" rx="1"></rect><rect x="665.5" y="115" width="4" height="4" rx="1"></rect><rect x="665.5" y="127" width="4" height="4" rx="1"></rect><rect x="677.5" y="91" width="4" height="4" rx="1"></rect><rect x="677.5" y="103" width="4" height="4" rx="1"></rect><rect x="677.5" y="115" width="4" height="4" rx="1"></rect><rect x="677.5" y="127" width="4" height="4" rx="1"></rect><rect x="689.5" y="91" width="4" height="4" rx="1"></rect><rect x="689.5" y="103" width="4" height="4" rx="1"></rect><rect x="689.5" y="115" width="4" height="4" rx="1"></rect><rect x="689.5" y="127" width="4" height="4" rx="1"></rect><rect x="701.5" y="91" width="4" height="4" rx="1"></rect><rect x="701.5" y="103" width="4" height="4" rx="1"></rect><rect x="701.5" y="115" width="4" height="4" rx="1"></rect><rect x="701.5" y="127" width="4" height="4" rx="1"></rect><rect x="713.5" y="91" width="4" height="4" rx="1"></rect><rect x="713.5" y="103" width="4" height="4" rx="1"></rect><rect x="713.5" y="115" width="4" height="4" rx="1"></rect><rect x="713.5" y="127" width="4" height="4" rx="1"></rect><rect x="725.5" y="91" width="4" height="4" rx="1"></rect><rect x="725.5" y="103" width="4" height="4" rx="1"></rect><rect x="725.5" y="115" width="4" height="4" rx="1"></rect><rect x="725.5" y="127" width="4" height="4" rx="1"></rect></g><path d="M637.5 105H647.5" stroke="#b5762f" stroke-width="3" stroke-linecap="round"></path><path d="M687.5 105H697.5" stroke="#b5762f" stroke-width="3" stroke-linecap="round"></path><path d="M647.5 105 a 4.5 4.5 0 0 1 9 0 a 4.5 4.5 0 0 1 9 0 a 4.5 4.5 0 0 1 9 0 a 4.5 4.5 0 0 1 9 0" fill="none" stroke="#cf8a3a" stroke-width="4" stroke-linecap="round"></path><text x="667.5" y="176" font-family="monospace" font-size="10" fill="#6b665d" text-anchor="middle">inductor</text></g><g><rect x="26" y="196" width="173" height="158" rx="10" fill="#f6f4ef" stroke="#e7e2d8"></rect><g fill="#d6d1c6"><rect x="50.5" y="261" width="4" height="4" rx="1"></rect><rect x="50.5" y="273" width="4" height="4" rx="1"></rect><rect x="50.5" y="285" width="4" height="4" rx="1"></rect><rect x="50.5" y="297" width="4" height="4" rx="1"></rect><rect x="62.5" y="261" width="4" height="4" rx="1"></rect><rect x="62.5" y="273" width="4" height="4" rx="1"></rect><rect x="62.5" y="285" width="4" height="4" rx="1"></rect><rect x="62.5" y="297" width="4" height="4" rx="1"></rect><rect x="74.5" y="261" width="4" height="4" rx="1"></rect><rect x="74.5" y="273" width="4" height="4" rx="1"></rect><rect x="74.5" y="285" width="4" height="4" rx="1"></rect><rect x="74.5" y="297" width="4" height="4" rx="1"></rect><rect x="86.5" y="261" width="4" height="4" rx="1"></rect><rect x="86.5" y="273" width="4" height="4" rx="1"></rect><rect x="86.5" y="285" width="4" height="4" rx="1"></rect><rect x="86.5" y="297" width="4" height="4" rx="1"></rect><rect x="98.5" y="261" width="4" height="4" rx="1"></rect><rect x="98.5" y="273" width="4" height="4" rx="1"></rect><rect x="98.5" y="285" width="4" height="4" rx="1"></rect><rect x="98.5" y="297" width="4" height="4" rx="1"></rect><rect x="110.5" y="261" width="4" height="4" rx="1"></rect><rect x="110.5" y="273" width="4" height="4" rx="1"></rect><rect x="110.5" y="285" width="4" height="4" rx="1"></rect><rect x="110.5" y="297" width="4" height="4" rx="1"></rect><rect x="122.5" y="261" width="4" height="4" rx="1"></rect><rect x="122.5" y="273" width="4" height="4" rx="1"></rect><rect x="122.5" y="285" width="4" height="4" rx="1"></rect><rect x="122.5" y="297" width="4" height="4" rx="1"></rect><rect x="134.5" y="261" width="4" height="4" rx="1"></rect><rect x="134.5" y="273" width="4" height="4" rx="1"></rect><rect x="134.5" y="285" width="4" height="4" rx="1"></rect><rect x="134.5" y="297" width="4" height="4" rx="1"></rect><rect x="146.5" y="261" width="4" height="4" rx="1"></rect><rect x="146.5" y="273" width="4" height="4" rx="1"></rect><rect x="146.5" y="285" width="4" height="4" rx="1"></rect><rect x="146.5" y="297" width="4" height="4" rx="1"></rect><rect x="158.5" y="261" width="4" height="4" rx="1"></rect><rect x="158.5" y="273" width="4" height="4" rx="1"></rect><rect x="158.5" y="285" width="4" height="4" rx="1"></rect><rect x="158.5" y="297" width="4" height="4" rx="1"></rect><rect x="170.5" y="261" width="4" height="4" rx="1"></rect><rect x="170.5" y="273" width="4" height="4" rx="1"></rect><rect x="170.5" y="285" width="4" height="4" rx="1"></rect><rect x="170.5" y="297" width="4" height="4" rx="1"></rect></g><path d="M82.5 275H92.5" stroke="#a9a395" stroke-width="3" stroke-linecap="round"></path><path d="M132.5 275H142.5" stroke="#a9a395" stroke-width="3" stroke-linecap="round"></path><rect x="92.5" y="269" width="40" height="12" rx="6" fill="#dce6ec" fill-opacity="0.5" stroke="#9bb0bd" stroke-width="1.2"></rect><path d="M93.5 275H114.5l2 -2" fill="none" stroke="#8d929b" stroke-width="1.6" stroke-linecap="round"></path><path d="M131.5 275H110.5l-2 2" fill="none" stroke="#8d929b" stroke-width="1.6" stroke-linecap="round"></path><text x="112.5" y="346" font-family="monospace" font-size="10" fill="#6b665d" text-anchor="middle">reed_switch</text></g><g><rect x="211" y="196" width="173" height="158" rx="10" fill="#f6f4ef" stroke="#e7e2d8"></rect><g fill="#d6d1c6"><rect x="235.5" y="261" width="4" height="4" rx="1"></rect><rect x="235.5" y="273" width="4" height="4" rx="1"></rect><rect x="235.5" y="285" width="4" height="4" rx="1"></rect><rect x="235.5" y="297" width="4" height="4" rx="1"></rect><rect x="247.5" y="261" width="4" height="4" rx="1"></rect><rect x="247.5" y="273" width="4" height="4" rx="1"></rect><rect x="247.5" y="285" width="4" height="4" rx="1"></rect><rect x="247.5" y="297" width="4" height="4" rx="1"></rect><rect x="259.5" y="261" width="4" height="4" rx="1"></rect><rect x="259.5" y="273" width="4" height="4" rx="1"></rect><rect x="259.5" y="285" width="4" height="4" rx="1"></rect><rect x="259.5" y="297" width="4" height="4" rx="1"></rect><rect x="271.5" y="261" width="4" height="4" rx="1"></rect><rect x="271.5" y="273" width="4" height="4" rx="1"></rect><rect x="271.5" y="285" width="4" height="4" rx="1"></rect><rect x="271.5" y="297" width="4" height="4" rx="1"></rect><rect x="283.5" y="261" width="4" height="4" rx="1"></rect><rect x="283.5" y="273" width="4" height="4" rx="1"></rect><rect x="283.5" y="285" width="4" height="4" rx="1"></rect><rect x="283.5" y="297" width="4" height="4" rx="1"></rect><rect x="295.5" y="261" width="4" height="4" rx="1"></rect><rect x="295.5" y="273" width="4" height="4" rx="1"></rect><rect x="295.5" y="285" width="4" height="4" rx="1"></rect><rect x="295.5" y="297" width="4" height="4" rx="1"></rect><rect x="307.5" y="261" width="4" height="4" rx="1"></rect><rect x="307.5" y="273" width="4" height="4" rx="1"></rect><rect x="307.5" y="285" width="4" height="4" rx="1"></rect><rect x="307.5" y="297" width="4" height="4" rx="1"></rect><rect x="319.5" y="261" width="4" height="4" rx="1"></rect><rect x="319.5" y="273" width="4" height="4" rx="1"></rect><rect x="319.5" y="285" width="4" height="4" rx="1"></rect><rect x="319.5" y="297" width="4" height="4" rx="1"></rect><rect x="331.5" y="261" width="4" height="4" rx="1"></rect><rect x="331.5" y="273" width="4" height="4" rx="1"></rect><rect x="331.5" y="285" width="4" height="4" rx="1"></rect><rect x="331.5" y="297" width="4" height="4" rx="1"></rect><rect x="343.5" y="261" width="4" height="4" rx="1"></rect><rect x="343.5" y="273" width="4" height="4" rx="1"></rect><rect x="343.5" y="285" width="4" height="4" rx="1"></rect><rect x="343.5" y="297" width="4" height="4" rx="1"></rect><rect x="355.5" y="261" width="4" height="4" rx="1"></rect><rect x="355.5" y="273" width="4" height="4" rx="1"></rect><rect x="355.5" y="285" width="4" height="4" rx="1"></rect><rect x="355.5" y="297" width="4" height="4" rx="1"></rect></g><path d="M285.5 275V263" stroke="#a9a395" stroke-width="2.6" stroke-linecap="round"></path><path d="M297.5 275V263" stroke="#a9a395" stroke-width="2.6" stroke-linecap="round"></path><path d="M309.5 275V263" stroke="#a9a395" stroke-width="2.6" stroke-linecap="round"></path><rect x="281.5" y="237" width="32" height="26" rx="2.5" fill="#2f6fae" stroke="#234f7d"></rect><circle cx="297.5" cy="250" r="9" fill="#c9a23b" stroke="#8a6f1f"></circle><line x1="291.5" y1="250" x2="303.5" y2="250" stroke="#7a5e16" stroke-width="2" stroke-linecap="round"></line><text x="297.5" y="346" font-family="monospace" font-size="10" fill="#6b665d" text-anchor="middle">trimpot</text></g><g><rect x="396" y="196" width="173" height="158" rx="10" fill="#f6f4ef" stroke="#e7e2d8"></rect><g fill="#d6d1c6"><rect x="420.5" y="261" width="4" height="4" rx="1"></rect><rect x="420.5" y="273" width="4" height="4" rx="1"></rect><rect x="420.5" y="285" width="4" height="4" rx="1"></rect><rect x="420.5" y="297" width="4" height="4" rx="1"></rect><rect x="432.5" y="261" width="4" height="4" rx="1"></rect><rect x="432.5" y="273" width="4" height="4" rx="1"></rect><rect x="432.5" y="285" width="4" height="4" rx="1"></rect><rect x="432.5" y="297" width="4" height="4" rx="1"></rect><rect x="444.5" y="261" width="4" height="4" rx="1"></rect><rect x="444.5" y="273" width="4" height="4" rx="1"></rect><rect x="444.5" y="285" width="4" height="4" rx="1"></rect><rect x="444.5" y="297" width="4" height="4" rx="1"></rect><rect x="456.5" y="261" width="4" height="4" rx="1"></rect><rect x="456.5" y="273" width="4" height="4" rx="1"></rect><rect x="456.5" y="285" width="4" height="4" rx="1"></rect><rect x="456.5" y="297" width="4" height="4" rx="1"></rect><rect x="468.5" y="261" width="4" height="4" rx="1"></rect><rect x="468.5" y="273" width="4" height="4" rx="1"></rect><rect x="468.5" y="285" width="4" height="4" rx="1"></rect><rect x="468.5" y="297" width="4" height="4" rx="1"></rect><rect x="480.5" y="261" width="4" height="4" rx="1"></rect><rect x="480.5" y="273" width="4" height="4" rx="1"></rect><rect x="480.5" y="285" width="4" height="4" rx="1"></rect><rect x="480.5" y="297" width="4" height="4" rx="1"></rect><rect x="492.5" y="261" width="4" height="4" rx="1"></rect><rect x="492.5" y="273" width="4" height="4" rx="1"></rect><rect x="492.5" y="285" width="4" height="4" rx="1"></rect><rect x="492.5" y="297" width="4" height="4" rx="1"></rect><rect x="504.5" y="261" width="4" height="4" rx="1"></rect><rect x="504.5" y="273" width="4" height="4" rx="1"></rect><rect x="504.5" y="285" width="4" height="4" rx="1"></rect><rect x="504.5" y="297" width="4" height="4" rx="1"></rect><rect x="516.5" y="261" width="4" height="4" rx="1"></rect><rect x="516.5" y="273" width="4" height="4" rx="1"></rect><rect x="516.5" y="285" width="4" height="4" rx="1"></rect><rect x="516.5" y="297" width="4" height="4" rx="1"></rect><rect x="528.5" y="261" width="4" height="4" rx="1"></rect><rect x="528.5" y="273" width="4" height="4" rx="1"></rect><rect x="528.5" y="285" width="4" height="4" rx="1"></rect><rect x="528.5" y="297" width="4" height="4" rx="1"></rect><rect x="540.5" y="261" width="4" height="4" rx="1"></rect><rect x="540.5" y="273" width="4" height="4" rx="1"></rect><rect x="540.5" y="285" width="4" height="4" rx="1"></rect><rect x="540.5" y="297" width="4" height="4" rx="1"></rect></g><path d="M462.5 297V293" stroke="#a9a395" stroke-width="2.2" stroke-linecap="round"></path><path d="M462.5 253V257" stroke="#a9a395" stroke-width="2.2" stroke-linecap="round"></path><path d="M472.5 297V293" stroke="#a9a395" stroke-width="2.2" stroke-linecap="round"></path><path d="M472.5 253V257" stroke="#a9a395" stroke-width="2.2" stroke-linecap="round"></path><path d="M482.5 297V293" stroke="#a9a395" stroke-width="2.2" stroke-linecap="round"></path><path d="M482.5 253V257" stroke="#a9a395" stroke-width="2.2" stroke-linecap="round"></path><path d="M492.5 297V293" stroke="#a9a395" stroke-width="2.2" stroke-linecap="round"></path><path d="M492.5 253V257" stroke="#a9a395" stroke-width="2.2" stroke-linecap="round"></path><path d="M502.5 297V293" stroke="#a9a395" stroke-width="2.2" stroke-linecap="round"></path><path d="M502.5 253V257" stroke="#a9a395" stroke-width="2.2" stroke-linecap="round"></path><rect x="456.5" y="255" width="52" height="40" rx="3" fill="#1b1b20" stroke="#000"></rect><g stroke="#e5463d" stroke-width="2.4" stroke-linecap="round"><line x1="471.5" y1="262" x2="479.5" y2="262"></line><line x1="479.5" y1="262" x2="479.5" y2="275"></line><line x1="479.5" y1="275" x2="479.5" y2="288"></line><line x1="471.5" y1="288" x2="479.5" y2="288"></line><line x1="471.5" y1="275" x2="471.5" y2="288"></line><line x1="471.5" y1="262" x2="471.5" y2="275"></line><line x1="471.5" y1="275" x2="479.5" y2="275"></line></g><g stroke="#e5463d" stroke-width="2.4" stroke-linecap="round"><line x1="486.5" y1="262" x2="494.5" y2="262"></line><line x1="494.5" y1="262" x2="494.5" y2="275"></line><line x1="494.5" y1="275" x2="494.5" y2="288"></line><line x1="486.5" y1="288" x2="494.5" y2="288"></line><line x1="486.5" y1="275" x2="486.5" y2="288"></line><line x1="486.5" y1="262" x2="486.5" y2="275"></line><line x1="486.5" y1="275" x2="494.5" y2="275"></line></g><text x="482.5" y="346" font-family="monospace" font-size="10" fill="#6b665d" text-anchor="middle">seg7</text></g><text x="20" y="378" font-family="monospace" font-size="11" fill="#0f766e">Standalone modules — generic labeled card + new icon thumbnail (wire to named pins)</text><rect x="70.5" y="390" width="84" height="106" rx="8" fill="#1f6fb0" stroke="rgba(0,0,0,0.3)"></rect><rect x="70.5" y="390" width="84" height="26" rx="8" fill="#5a4fb0"></rect><rect x="75.5" y="394" width="18" height="18" rx="3" fill="#fff" opacity="0.92"></rect><g transform="translate(76 394.5) scale(0.265625)">
<rect x="12" y="12" width="40" height="35" rx="5" fill="#2a3140" stroke="#34302b" stroke-width="2.6"></rect><rect x="13.3" y="13.3" width="37.4" height="9" rx="3" fill="#39414f"></rect><g fill="#d7b24c" stroke="#b88f33" stroke-width="0.8"><rect x="17.6" y="47" width="4.8" height="8" rx="1.3"></rect><rect x="25.6" y="47" width="4.8" height="8" rx="1.3"></rect><rect x="33.6" y="47" width="4.8" height="8" rx="1.3"></rect><rect x="41.6" y="47" width="4.8" height="8" rx="1.3"></rect></g><g stroke="#37b88f" stroke-width="2.6" stroke-linecap="round" stroke-linejoin="round" fill="none"><path d="M26 19v10"></path></g><circle cx="26" cy="33" r="4" fill="#37b88f"></circle><path d="M26 24v8" stroke="#37b88f" stroke-width="2.6" stroke-linecap="round"></path><path d="M39 21c3.2 4 4.6 6.4 4.6 8.6a4.6 4.6 0 0 1-9.2 0c0-2.2 1.4-4.6 4.6-8.6z" fill="#37b88f"></path>
</g><text x="98.5" y="407" font-family="monospace" font-size="11" font-weight="700" fill="#fff">BME280</text><rect x="78.5" y="420" width="8" height="8" rx="1.5" fill="#e8cf6b" stroke="#b39f55"></rect><text x="92.5" y="427" font-family="monospace" font-size="9" fill="#dfe3ea">VCC</text><rect x="78.5" y="438" width="8" height="8" rx="1.5" fill="#e8cf6b" stroke="#b39f55"></rect><text x="92.5" y="445" font-family="monospace" font-size="9" fill="#dfe3ea">GND</text><rect x="78.5" y="456" width="8" height="8" rx="1.5" fill="#e8cf6b" stroke="#b39f55"></rect><text x="92.5" y="463" font-family="monospace" font-size="9" fill="#dfe3ea">SCL</text><rect x="78.5" y="474" width="8" height="8" rx="1.5" fill="#e8cf6b" stroke="#b39f55"></rect><text x="92.5" y="481" font-family="monospace" font-size="9" fill="#dfe3ea">SDA</text><rect x="255.5" y="390" width="84" height="106" rx="8" fill="#1f6fb0" stroke="rgba(0,0,0,0.3)"></rect><rect x="255.5" y="390" width="84" height="26" rx="8" fill="#2563eb"></rect><rect x="260.5" y="394" width="18" height="18" rx="3" fill="#fff" opacity="0.92"></rect><g transform="translate(261 394.5) scale(0.265625)">
<rect x="6" y="16" width="52" height="30" rx="4" fill="#15532f" stroke="#34302b" stroke-width="2.6"></rect><g><circle cx="21" cy="30" r="9.5" fill="#3a4150" stroke="#34302b" stroke-width="2.6"></circle><circle cx="21" cy="30" r="5.5" fill="#272c36"></circle><circle cx="21" cy="30" r="1.6" fill="#5b6470"></circle><circle cx="43" cy="30" r="9.5" fill="#3a4150" stroke="#34302b" stroke-width="2.6"></circle><circle cx="43" cy="30" r="5.5" fill="#272c36"></circle><circle cx="43" cy="30" r="1.6" fill="#5b6470"></circle></g><rect x="29" y="25" width="6" height="10" rx="1.5" fill="#cfd6e0" stroke="#34302b" stroke-width="1.4"></rect><g fill="#d7b24c" stroke="#b88f33" stroke-width="0.8"><rect x="21.6" y="46" width="4.8" height="8" rx="1.3"></rect><rect x="29.6" y="46" width="4.8" height="8" rx="1.3"></rect><rect x="37.6" y="46" width="4.8" height="8" rx="1.3"></rect></g>
</g><text x="283.5" y="407" font-family="monospace" font-size="11" font-weight="700" fill="#fff">HC-SR04</text><rect x="263.5" y="420" width="8" height="8" rx="1.5" fill="#e8cf6b" stroke="#b39f55"></rect><text x="277.5" y="427" font-family="monospace" font-size="9" fill="#dfe3ea">VCC</text><rect x="263.5" y="438" width="8" height="8" rx="1.5" fill="#e8cf6b" stroke="#b39f55"></rect><text x="277.5" y="445" font-family="monospace" font-size="9" fill="#dfe3ea">TRIG</text><rect x="263.5" y="456" width="8" height="8" rx="1.5" fill="#e8cf6b" stroke="#b39f55"></rect><text x="277.5" y="463" font-family="monospace" font-size="9" fill="#dfe3ea">ECHO</text><rect x="263.5" y="474" width="8" height="8" rx="1.5" fill="#e8cf6b" stroke="#b39f55"></rect><text x="277.5" y="481" font-family="monospace" font-size="9" fill="#dfe3ea">GND</text><rect x="440.5" y="390" width="84" height="106" rx="8" fill="#1f6fb0" stroke="rgba(0,0,0,0.3)"></rect><rect x="440.5" y="390" width="84" height="26" rx="8" fill="#1d4ed8"></rect><rect x="445.5" y="394" width="18" height="18" rx="3" fill="#fff" opacity="0.92"></rect><g transform="translate(446 394.5) scale(0.265625)">
<rect x="12" y="12" width="40" height="35" rx="5" fill="#2a3140" stroke="#34302b" stroke-width="2.6"></rect><rect x="13.3" y="13.3" width="37.4" height="9" rx="3" fill="#39414f"></rect><g fill="#d7b24c" stroke="#b88f33" stroke-width="0.8"><rect x="17.6" y="47" width="4.8" height="8" rx="1.3"></rect><rect x="25.6" y="47" width="4.8" height="8" rx="1.3"></rect><rect x="33.6" y="47" width="4.8" height="8" rx="1.3"></rect><rect x="41.6" y="47" width="4.8" height="8" rx="1.3"></rect></g><g stroke="#5b9bf2" stroke-width="2.6" stroke-linecap="round" stroke-linejoin="round" fill="none"><path d="M32 40V24"></path><path d="M27 22a7 7 0 0 1 10 0"></path><path d="M23 18a13 13 0 0 1 18 0"></path></g><circle cx="32" cy="40" r="2.4" fill="#5b9bf2"></circle>
</g><text x="468.5" y="407" font-family="monospace" font-size="11" font-weight="700" fill="#fff">HC-05</text><rect x="448.5" y="420" width="8" height="8" rx="1.5" fill="#e8cf6b" stroke="#b39f55"></rect><text x="462.5" y="427" font-family="monospace" font-size="9" fill="#dfe3ea">EN</text><rect x="448.5" y="438" width="8" height="8" rx="1.5" fill="#e8cf6b" stroke="#b39f55"></rect><text x="462.5" y="445" font-family="monospace" font-size="9" fill="#dfe3ea">VCC</text><rect x="448.5" y="456" width="8" height="8" rx="1.5" fill="#e8cf6b" stroke="#b39f55"></rect><text x="462.5" y="463" font-family="monospace" font-size="9" fill="#dfe3ea">GND</text><rect x="448.5" y="474" width="8" height="8" rx="1.5" fill="#e8cf6b" stroke="#b39f55"></rect><text x="462.5" y="481" font-family="monospace" font-size="9" fill="#dfe3ea">TXD</text></svg>