<svg xmlns="http://www.w3.org/2000/svg" viewBox="0 0 200 100" width="100%" height="100%">
  <defs>
    <linearGradient id="bodyGrad" x1="0%" y1="0%" x2="0%" y2="100%">
      <stop offset="0%" stop-color="#f4e0bc"/>
      <stop offset="50%" stop-color="#e8c28a"/>
      <stop offset="100%" stop-color="#cc9e57"/>
    </linearGradient>
    
    <linearGradient id="leadGrad" x1="0%" y1="0%" x2="0%" y2="100%">
      <stop offset="0%" stop-color="#eaeaea"/>
      <stop offset="50%" stop-color="#b0b0b0"/>
      <stop offset="100%" stop-color="#7a7a7a"/>
    </linearGradient>

    <rect id="h" x="-4" y="-4" width="8" height="8" rx="2" fill="#262626" />

    <path id="bodyShape" d="M 55,22 
             C 65,22 65,26 75,26 
             L 125,26 
             C 135,26 135,22 145,22
             A 5,5 0 0 1 150,27
             L 150,53
             A 5,5 0 0 1 145,58
             C 135,58 135,54 125,54
             L 75,54
             C 65,54 65,58 55,58
             A 5,5 0 0 1 50,53
             L 50,27
             A 5,5 0 0 1 55,22 Z" />
             
    <clipPath id="bodyClip">
       <use href="#bodyShape"/>
    </clipPath>
  </defs>

  <rect x="5" y="45" width="190" height="55" rx="4" fill="#f0f2f5" stroke="#e0e0e0" stroke-width="1"/>
  
  <rect x="5" y="52" width="190" height="4" fill="#e2e3e5" />

  <use href="#h" x="20" y="68"/><use href="#h" x="40" y="68"/><use href="#h" x="60" y="68"/><use href="#h" x="80" y="68"/><use href="#h" x="100" y="68"/><use href="#h" x="120" y="68"/><use href="#h" x="140" y="68"/><use href="#h" x="160" y="68"/><use href="#h" x="180" y="68"/>
  
  <use href="#h" x="20" y="84"/><use href="#h" x="40" y="84"/><use href="#h" x="60" y="84"/><use href="#h" x="80" y="84"/><use href="#h" x="100" y="84"/><use href="#h" x="120" y="84"/><use href="#h" x="140" y="84"/><use href="#h" x="160" y="84"/><use href="#h" x="180" y="84"/>

  <g fill="none" stroke="rgba(0,0,0,0.15)" stroke-width="4" stroke-linecap="round" transform="translate(2, 4)">
    <path d="M 20,84 L 20,50 Q 20,40 30,40 L 50,40" />
    <path d="M 150,40 L 170,40 Q 180,40 180,50 L 180,84" />
  </g>
  <use href="#bodyShape" transform="translate(2, 4)" fill="rgba(0,0,0,0.15)"/>

  <path d="M 20,84 L 20,50 Q 20,40 30,40 L 55,40" fill="none" stroke="url(#leadGrad)" stroke-width="4" stroke-linecap="round"/>
  <path d="M 145,40 L 170,40 Q 180,40 180,50 L 180,84" fill="none" stroke="url(#leadGrad)" stroke-width="4" stroke-linecap="round"/>

  <use href="#bodyShape" fill="url(#bodyGrad)"/>

  <g clip-path="url(#bodyClip)">
    <rect x="56" y="20" width="8" height="40" fill="#8B4513"/>
    
    <rect x="75" y="20" width="8" height="40" fill="#1A1A1A"/>
    
    <rect x="95" y="20" width="8" height="40" fill="#D32F2F"/>
    
    <rect x="136" y="20" width="8" height="40" fill="#D4AF37"/>

    <rect x="50" y="22" width="100" height="12" fill="#ffffff" opacity="0.3"/>
    <rect x="50" y="46" width="100" height="12" fill="#000000" opacity="0.2"/>
    
    <rect x="50" y="25" width="100" height="2" fill="#ffffff" opacity="0.5"/>
  </g>
</svg>
