<svg xmlns="http://www.w3.org/2000/svg" viewBox="0 0 64 64" fill="none">
<rect x="12" y="10" width="40" height="44" rx="4" fill="#15532f" stroke="#34302b" stroke-width="2.6"></rect><g fill="#d7b24c"><rect x="13" y="16" width="5" height="3.4" rx="1"></rect><rect x="46" y="16" width="5" height="3.4" rx="1"></rect><rect x="13" y="24" width="5" height="3.4" rx="1"></rect><rect x="46" y="24" width="5" height="3.4" rx="1"></rect><rect x="13" y="32" width="5" height="3.4" rx="1"></rect><rect x="46" y="32" width="5" height="3.4" rx="1"></rect><rect x="13" y="40" width="5" height="3.4" rx="1"></rect><rect x="46" y="40" width="5" height="3.4" rx="1"></rect><rect x="13" y="48" width="5" height="3.4" rx="1"></rect><rect x="46" y="48" width="5" height="3.4" rx="1"></rect></g><rect x="24" y="24" width="16" height="16" rx="2" fill="#26252a"></rect><rect x="26" y="11" width="12" height="7" rx="1.5" fill="#b9bdc4" stroke="#34302b" stroke-width="1.6"></rect>
</svg>