<svg xmlns="http://www.w3.org/2000/svg" viewBox="0 0 64 64" fill="none">
<rect x="12" y="12" width="40" height="35" rx="5" fill="#2a3140" stroke="#34302b" stroke-width="2.6"></rect><rect x="13.3" y="13.3" width="37.4" height="9" rx="3" fill="#39414f"></rect><g fill="#d7b24c" stroke="#b88f33" stroke-width="0.8"><rect x="17.6" y="47" width="4.8" height="8" rx="1.3"></rect><rect x="25.6" y="47" width="4.8" height="8" rx="1.3"></rect><rect x="33.6" y="47" width="4.8" height="8" rx="1.3"></rect><rect x="41.6" y="47" width="4.8" height="8" rx="1.3"></rect></g><g stroke="#37b88f" stroke-width="2.6" stroke-linecap="round" stroke-linejoin="round" fill="none"><path d="M26 19v10"></path></g><circle cx="26" cy="33" r="4" fill="#37b88f"></circle><path d="M26 24v8" stroke="#37b88f" stroke-width="2.6" stroke-linecap="round"></path><path d="M39 21c3.2 4 4.6 6.4 4.6 8.6a4.6 4.6 0 0 1-9.2 0c0-2.2 1.4-4.6 4.6-8.6z" fill="#37b88f"></path>
</svg>