<svg xmlns="http://www.w3.org/2000/svg" viewBox="0 0 64 64" fill="none">
<rect x="12" y="12" width="40" height="35" rx="5" fill="#2a3140" stroke="#34302b" stroke-width="2.6"></rect><rect x="13.3" y="13.3" width="37.4" height="9" rx="3" fill="#39414f"></rect><g fill="#d7b24c" stroke="#b88f33" stroke-width="0.8"><rect x="17.6" y="47" width="4.8" height="8" rx="1.3"></rect><rect x="25.6" y="47" width="4.8" height="8" rx="1.3"></rect><rect x="33.6" y="47" width="4.8" height="8" rx="1.3"></rect><rect x="41.6" y="47" width="4.8" height="8" rx="1.3"></rect></g><circle cx="32" cy="29" r="6" fill="none" stroke="#f1c33f" stroke-width="2.6"></circle><g stroke="#f1c33f" stroke-width="2.6" stroke-linecap="round" stroke-linejoin="round" fill="none"><path d="M32 17v3.5"></path><path d="M32 37.5V41"></path><path d="M20 29h3.5"></path><path d="M40.5 29H44"></path><path d="M23.5 20.5l2.4 2.4"></path><path d="M38.1 35.1l2.4 2.4"></path><path d="M40.5 20.5l-2.4 2.4"></path><path d="M25.9 35.1l-2.4 2.4"></path></g>
</svg>